<mxfile host="65bd71144e" scale="5" border="10">
    <diagram id="6NRBU0wVSXhq6vlPgpqr" name="ページ1">
        <mxGraphModel dx="1389" dy="974" grid="1" gridSize="10" guides="1" tooltips="1" connect="1" arrows="1" fold="1" page="1" pageScale="1" pageWidth="1169" pageHeight="827" background="#ffffff" math="0" shadow="0">
            <root>
                <mxCell id="0"/>
                <mxCell id="1" parent="0"/>
                <mxCell id="21" style="edgeStyle=orthogonalEdgeStyle;html=1;endArrow=none;endFill=0;exitX=0.5;exitY=1;exitDx=0;exitDy=0;rounded=0;entryX=0.5;entryY=0;entryDx=0;entryDy=0;" parent="1" source="6" target="7" edge="1">
                    <mxGeometry relative="1" as="geometry">
                        <mxPoint x="200" y="262" as="targetPoint"/>
                    </mxGeometry>
                </mxCell>
                <mxCell id="33" style="edgeStyle=orthogonalEdgeStyle;html=1;exitX=0;exitY=0.5;exitDx=0;exitDy=0;entryX=0;entryY=0.5;entryDx=0;entryDy=0;endArrow=none;endFill=0;rounded=0;" parent="1" source="6" target="11" edge="1">
                    <mxGeometry relative="1" as="geometry">
                        <Array as="points">
                            <mxPoint x="160" y="140"/>
                            <mxPoint x="70" y="140"/>
                            <mxPoint x="70" y="797"/>
                        </Array>
                    </mxGeometry>
                </mxCell>
                <mxCell id="35" style="edgeStyle=orthogonalEdgeStyle;rounded=0;html=1;exitX=0.75;exitY=1;exitDx=0;exitDy=0;endArrow=none;endFill=0;" parent="1" source="6" target="12" edge="1">
                    <mxGeometry relative="1" as="geometry">
                        <Array as="points">
                            <mxPoint x="280" y="250"/>
                            <mxPoint x="735" y="250"/>
                        </Array>
                    </mxGeometry>
                </mxCell>
                <mxCell id="6" value="&lt;p style=&quot;margin:0px;margin-top:4px;text-align:center;text-decoration:underline;&quot;&gt;&lt;b&gt;user1 : User&lt;/b&gt;&lt;/p&gt;&lt;hr&gt;&lt;p style=&quot;margin:0px;margin-left:8px;&quot;&gt;userId = 1&lt;br&gt;userName = &quot;John&quot;&lt;br&gt;password = &quot;password&quot;&lt;/p&gt;" style="verticalAlign=top;align=left;overflow=fill;fontSize=12;fontFamily=Helvetica;html=1;" parent="1" vertex="1">
                    <mxGeometry x="160" y="100" width="160" height="90" as="geometry"/>
                </mxCell>
                <mxCell id="34" style="edgeStyle=orthogonalEdgeStyle;rounded=0;html=1;exitX=0.25;exitY=1;exitDx=0;exitDy=0;entryX=0.25;entryY=0;entryDx=0;entryDy=0;endArrow=none;endFill=0;" parent="1" source="7" target="11" edge="1">
                    <mxGeometry relative="1" as="geometry">
                        <Array as="points">
                            <mxPoint x="168" y="722"/>
                            <mxPoint x="610" y="722"/>
                        </Array>
                    </mxGeometry>
                </mxCell>
                <mxCell id="7" value="&lt;p style=&quot;margin:0px;margin-top:4px;text-align:center;text-decoration:underline;&quot;&gt;&lt;b&gt;diary1 : Diary&lt;/b&gt;&lt;/p&gt;&lt;hr&gt;&lt;p style=&quot;margin:0px;margin-left:8px;&quot;&gt;diaryId = 101&lt;br&gt;body = &quot;今日はいい天気で，とても気分がいい．&quot;&lt;br&gt;create_at = &quot;2024-04-01&quot;&lt;/p&gt;&lt;p style=&quot;margin:0px;margin-left:8px;&quot;&gt;update_at = &quot;2024-04-01&quot;&lt;/p&gt;" style="verticalAlign=top;align=left;overflow=fill;fontSize=12;fontFamily=Helvetica;html=1;" parent="1" vertex="1">
                    <mxGeometry x="95" y="272" width="290" height="100" as="geometry"/>
                </mxCell>
                <mxCell id="30" style="html=1;endArrow=none;endFill=0;rounded=0;edgeStyle=orthogonalEdgeStyle;entryX=0.5;entryY=1;entryDx=0;entryDy=0;exitX=0;exitY=0.5;exitDx=0;exitDy=0;" parent="1" source="9" target="7" edge="1">
                    <mxGeometry relative="1" as="geometry">
                        <mxPoint x="310" y="372" as="targetPoint"/>
                    </mxGeometry>
                </mxCell>
                <mxCell id="9" value="&lt;p style=&quot;margin:0px;margin-top:4px;text-align:center;text-decoration:underline;&quot;&gt;&lt;b&gt;Analysis1 : AnalysisResult&lt;/b&gt;&lt;/p&gt;&lt;hr&gt;&lt;p style=&quot;margin:0px;margin-left:8px;&quot;&gt;analysisId = 501&lt;/p&gt;&lt;p style=&quot;margin:0px;margin-left:8px;&quot;&gt;diaryId = 101&lt;/p&gt;&lt;p style=&quot;margin:0px;margin-left:8px;&quot;&gt;responce: &quot;&lt;/p&gt;&lt;p style=&quot;margin:0px;margin-left:8px;&quot;&gt;&lt;span style=&quot;white-space: pre;&quot;&gt;&#9;&lt;span style=&quot;white-space: pre;&quot;&gt;&#9;&lt;/span&gt;&lt;/span&gt;天気がいいと気分も晴れますね．&lt;/p&gt;&lt;p style=&quot;margin:0px;margin-left:8px;&quot;&gt;&lt;span style=&quot;white-space: pre;&quot;&gt;&#9;&lt;span style=&quot;white-space: pre;&quot;&gt;&#9;&lt;/span&gt;&lt;/span&gt;明日も晴れるといいですね！&quot;&lt;/p&gt;&lt;p style=&quot;margin:0px;margin-left:8px;&quot;&gt;emotion: &quot;happy&quot;&lt;/p&gt;&lt;p style=&quot;margin:0px;margin-left:8px;&quot;&gt;emotion_degree: 1.0&lt;/p&gt;&lt;p style=&quot;margin:0px;margin-left:8px;&quot;&gt;date: 2024-04-01&lt;/p&gt;" style="verticalAlign=top;align=left;overflow=fill;fontSize=12;fontFamily=Helvetica;html=1;" parent="1" vertex="1">
                    <mxGeometry x="270" y="462" width="280" height="160" as="geometry"/>
                </mxCell>
                <mxCell id="37" style="edgeStyle=orthogonalEdgeStyle;rounded=0;html=1;exitX=1;exitY=0.5;exitDx=0;exitDy=0;entryX=1;entryY=0.5;entryDx=0;entryDy=0;endArrow=none;endFill=0;" parent="1" source="10" target="11" edge="1">
                    <mxGeometry relative="1" as="geometry">
                        <Array as="points">
                            <mxPoint x="1150" y="117"/>
                            <mxPoint x="1150" y="797"/>
                        </Array>
                    </mxGeometry>
                </mxCell>
                <mxCell id="38" style="edgeStyle=orthogonalEdgeStyle;rounded=0;html=1;exitX=0.5;exitY=1;exitDx=0;exitDy=0;entryX=1;entryY=0.5;entryDx=0;entryDy=0;endArrow=none;endFill=0;" parent="1" source="10" target="18" edge="1">
                    <mxGeometry relative="1" as="geometry">
                        <Array as="points">
                            <mxPoint x="980" y="307"/>
                            <mxPoint x="1090" y="307"/>
                            <mxPoint x="1090" y="542"/>
                        </Array>
                    </mxGeometry>
                </mxCell>
                <mxCell id="39" style="edgeStyle=orthogonalEdgeStyle;rounded=0;html=1;exitX=0.75;exitY=1;exitDx=0;exitDy=0;entryX=0.5;entryY=1;entryDx=0;entryDy=0;endArrow=none;endFill=0;" parent="1" source="10" target="9" edge="1">
                    <mxGeometry relative="1" as="geometry">
                        <Array as="points">
                            <mxPoint x="1020" y="210"/>
                            <mxPoint x="1120" y="210"/>
                            <mxPoint x="1120" y="690"/>
                            <mxPoint x="410" y="690"/>
                        </Array>
                    </mxGeometry>
                </mxCell>
                <mxCell id="10" value="&lt;p style=&quot;margin:0px;margin-top:4px;text-align:center;text-decoration:underline;&quot;&gt;&lt;b&gt;bot1 : EmotionAI&lt;/b&gt;&lt;/p&gt;&lt;hr&gt;&lt;p style=&quot;margin:0px;margin-left:8px;&quot;&gt;botId = 1&lt;br&gt;botName = &quot;Alice&quot;&lt;/p&gt;" style="verticalAlign=top;align=left;overflow=fill;fontSize=12;fontFamily=Helvetica;html=1;" parent="1" vertex="1">
                    <mxGeometry x="900" y="82" width="160" height="70" as="geometry"/>
                </mxCell>
                <mxCell id="11" value="&lt;p style=&quot;margin: 4px 0px 0px; text-decoration: underline; line-height: 180%;&quot;&gt;&lt;b&gt;diaries : 日記一覧&lt;/b&gt;&lt;/p&gt;" style="verticalAlign=middle;align=center;overflow=fill;fontSize=12;fontFamily=Helvetica;html=1;" parent="1" vertex="1">
                    <mxGeometry x="570" y="782" width="160" height="30" as="geometry"/>
                </mxCell>
                <mxCell id="26" style="html=1;endArrow=none;endFill=0;exitX=0.25;exitY=1;exitDx=0;exitDy=0;rounded=0;edgeStyle=orthogonalEdgeStyle;entryX=0.5;entryY=0;entryDx=0;entryDy=0;" parent="1" source="12" target="11" edge="1">
                    <mxGeometry relative="1" as="geometry">
                        <Array as="points">
                            <mxPoint x="650" y="372"/>
                        </Array>
                    </mxGeometry>
                </mxCell>
                <mxCell id="12" value="&lt;p style=&quot;margin:0px;margin-top:4px;text-align:center;text-decoration:underline;&quot;&gt;&lt;b&gt;diary7 : Diary&lt;/b&gt;&lt;/p&gt;&lt;hr&gt;&lt;p style=&quot;margin:0px;margin-left:8px;&quot;&gt;diaryId = 107&lt;br&gt;body = &quot;今日一日，バイトでミスをしたことを引きずってしまった．&quot;&lt;br&gt;create_at = &quot;2024-04-12&quot;&lt;/p&gt;&lt;p style=&quot;margin:0px;margin-left:8px;&quot;&gt;update_at = &quot;2024-04-12&quot;&lt;/p&gt;" style="verticalAlign=top;align=left;overflow=fill;fontSize=12;fontFamily=Helvetica;html=1;" parent="1" vertex="1">
                    <mxGeometry x="540" y="272" width="390" height="100" as="geometry"/>
                </mxCell>
                <mxCell id="31" style="edgeStyle=orthogonalEdgeStyle;html=1;endArrow=none;endFill=0;exitX=0.5;exitY=0;exitDx=0;exitDy=0;rounded=0;entryX=0.5;entryY=1;entryDx=0;entryDy=0;" parent="1" source="18" target="12" edge="1">
                    <mxGeometry relative="1" as="geometry"/>
                </mxCell>
                <mxCell id="18" value="&lt;p style=&quot;margin:0px;margin-top:4px;text-align:center;text-decoration:underline;&quot;&gt;&lt;b&gt;Analysis7 : AnalysisResult&lt;/b&gt;&lt;/p&gt;&lt;hr&gt;&lt;p style=&quot;margin:0px;margin-left:8px;&quot;&gt;analysisId = 509&lt;/p&gt;&lt;p style=&quot;margin:0px;margin-left:8px;&quot;&gt;diaryId = 107&lt;/p&gt;&lt;p style=&quot;margin:0px;margin-left:8px;&quot;&gt;responce: &quot;&lt;/p&gt;&lt;p style=&quot;margin:0px;margin-left:8px;&quot;&gt;&lt;span style=&quot;white-space: pre;&quot;&gt;&#9;&lt;span style=&quot;white-space: pre;&quot;&gt;&#9;&lt;/span&gt;ミス&lt;/span&gt;をしてしまうと，落ち込んでしまいますよね．&lt;/p&gt;&lt;p style=&quot;margin:0px;margin-left:8px;&quot;&gt;&lt;span style=&quot;background-color: initial;&quot;&gt;&lt;span style=&quot;white-space: pre;&quot;&gt;&#9;&lt;/span&gt;&lt;span style=&quot;white-space: pre;&quot;&gt;&#9;&lt;/span&gt;失敗も経験のうちです．明日は切り替えていきましょう！&quot;&lt;/span&gt;&lt;/p&gt;&lt;p style=&quot;margin:0px;margin-left:8px;&quot;&gt;emotion: &quot;sad&quot;&lt;/p&gt;&lt;p style=&quot;margin:0px;margin-left:8px;&quot;&gt;emotion_degree: 0.3&lt;/p&gt;&lt;p style=&quot;margin:0px;margin-left:8px;&quot;&gt;date: 2024-04-12&lt;/p&gt;" style="verticalAlign=top;align=left;overflow=fill;fontSize=12;fontFamily=Helvetica;html=1;" parent="1" vertex="1">
                    <mxGeometry x="670" y="462" width="390" height="160" as="geometry"/>
                </mxCell>
                <mxCell id="43" value="&lt;h1&gt;シナリオ ($_001)&lt;/h1&gt;&lt;p&gt;Userである&quot;John&quot;は2024年4月1日に「今日はいい天気で，とても気分がいい」という内容で日記を記録した(この時登録された日記のID（diaryId）は101)．対してEmotionAIである&quot;Alice&quot;は新たに追加された日記（diaryId=101）に対して分析を行い，「天気がいいと気分が晴れますね．明日も晴れるといいですね！」というコメントを残し，感情分析結果として，{date: 2024-04-01, emotion: &quot;happy&quot;, emotion_degree: 1.0}を保管する．&lt;/p&gt;&lt;p&gt;新たにUser&quot;John&quot;は2024年4月12日に「今日一日，バイトでミスをしたことを引きずってしまった．」という内容で記録した（diaryId = 107）．対してEmotionAI&quot;Alice&quot;は新たに追加された日記（diaryId-107）に対して分析を行い，「ミスをしてしまうと，落ち込んでしまいますよね．失敗も経験のうちです．明日は切り替えていきましょう！」というコメントを残し，感情分析結果として，{date: 2024-04-12, emotion: &quot;sad&quot;, emotion_degree: 0.3}を保管する．&lt;span style=&quot;background-color: initial;&quot;&gt;&amp;nbsp;&lt;/span&gt;&lt;/p&gt;" style="text;html=1;strokeColor=default;fillColor=#F2F2F2;spacing=5;spacingTop=-20;whiteSpace=wrap;overflow=hidden;rounded=0;strokeWidth=2;gradientColor=none;fillStyle=auto;" parent="1" vertex="1">
                    <mxGeometry x="330" y="10" width="540" height="230" as="geometry"/>
                </mxCell>
            </root>
        </mxGraphModel>
    </diagram>
</mxfile>